<?xml version="1.0" encoding="UTF-8" standalone="no"?>
<!DOCTYPE svg PUBLIC "-//W3C//DTD SVG 1.1//EN"
 "http://www.w3.org/Graphics/SVG/1.1/DTD/svg11.dtd">
<!-- Generated by graphviz version 2.47.0 (20210316.0004)
 -->
<!-- Title: dependencies Pages: 1 -->
<svg width="747pt" height="211pt"
 viewBox="0.00 0.00 747.00 211.00" xmlns="http://www.w3.org/2000/svg" xmlns:xlink="http://www.w3.org/1999/xlink">
<g id="graph0" class="graph" transform="scale(1 1) rotate(0) translate(4 207)">
<title>dependencies</title>
<polygon fill="white" stroke="transparent" points="-4,4 -4,-207 743,-207 743,4 -4,4"/>
<text text-anchor="start" x="348.51" y="-42.4" font-family="sans-serif" font-weight="bold" font-size="14.00">Legend</text>
<polygon fill="#ffffb3" stroke="transparent" points="135.5,-10 135.5,-30 155.5,-30 155.5,-10 135.5,-10"/>
<text text-anchor="start" x="159.13" y="-15.4" font-family="sans-serif" font-size="14.00"> &#160;Declarations</text>
<polygon fill="#8dd3c7" stroke="transparent" points="248.5,-10 248.5,-30 268.5,-30 268.5,-10 248.5,-10"/>
<text text-anchor="start" x="272.23" y="-15.4" font-family="sans-serif" font-size="14.00"> &#160;Module</text>
<polygon fill="#80b1d3" stroke="transparent" points="334.5,-10 334.5,-30 354.5,-30 354.5,-10 334.5,-10"/>
<text text-anchor="start" x="358.28" y="-15.4" font-family="sans-serif" font-size="14.00"> &#160;Bootstrap</text>
<polygon fill="#fdb462" stroke="transparent" points="431.5,-10 431.5,-30 451.5,-30 451.5,-10 431.5,-10"/>
<text text-anchor="start" x="455.17" y="-15.4" font-family="sans-serif" font-size="14.00"> &#160;Providers</text>
<polygon fill="#fb8072" stroke="transparent" points="527.5,-10 527.5,-30 547.5,-30 547.5,-10 527.5,-10"/>
<text text-anchor="start" x="551.23" y="-15.4" font-family="sans-serif" font-size="14.00"> &#160;Exports</text>
<g id="clust1" class="cluster">
<title>cluster_HomeModule</title>
<polygon fill="none" stroke="black" stroke-dasharray="1,5" points="8,-70 8,-195 731,-195 731,-70 8,-70"/>
</g>
<g id="clust2" class="cluster">
<title>cluster_HomeModule_declarations</title>
<polygon fill="none" stroke="black" points="16,-78 16,-130 723,-130 723,-78 16,-78"/>
</g>
<!-- BasketsComponent -->
<g id="node1" class="node">
<title>BasketsComponent</title>
<polygon fill="#ffffb3" stroke="black" points="715.38,-122 590.62,-122 590.62,-86 715.38,-86 715.38,-122"/>
<text text-anchor="middle" x="653" y="-99.8" font-family="Times,serif" font-size="14.00">BasketsComponent</text>
</g>
<!-- HomeModule -->
<g id="node6" class="node">
<title>HomeModule</title>
<polygon fill="#8dd3c7" stroke="black" points="416.76,-187 413.76,-191 392.76,-191 389.76,-187 323.24,-187 323.24,-151 416.76,-151 416.76,-187"/>
<text text-anchor="middle" x="370" y="-164.8" font-family="Times,serif" font-size="14.00">HomeModule</text>
</g>
<!-- BasketsComponent&#45;&gt;HomeModule -->
<g id="edge1" class="edge">
<title>BasketsComponent&#45;&gt;HomeModule</title>
<path fill="none" stroke="black" d="M653,-122.28C653,-143.32 653,-175 653,-175 653,-175 427.05,-175 427.05,-175"/>
<polygon fill="black" stroke="black" points="427.05,-171.5 417.05,-175 427.05,-178.5 427.05,-171.5"/>
</g>
<!-- DetailsComponent -->
<g id="node2" class="node">
<title>DetailsComponent</title>
<polygon fill="#ffffb3" stroke="black" points="572.48,-122 451.52,-122 451.52,-86 572.48,-86 572.48,-122"/>
<text text-anchor="middle" x="512" y="-99.8" font-family="Times,serif" font-size="14.00">DetailsComponent</text>
</g>
<!-- DetailsComponent&#45;&gt;HomeModule -->
<g id="edge2" class="edge">
<title>DetailsComponent&#45;&gt;HomeModule</title>
<path fill="none" stroke="black" d="M512,-122.02C512,-139.37 512,-163 512,-163 512,-163 426.89,-163 426.89,-163"/>
<polygon fill="black" stroke="black" points="426.89,-159.5 416.89,-163 426.89,-166.5 426.89,-159.5"/>
</g>
<!-- MarketsComponent -->
<g id="node3" class="node">
<title>MarketsComponent</title>
<polygon fill="#ffffb3" stroke="black" points="433.7,-122 306.3,-122 306.3,-86 433.7,-86 433.7,-122"/>
<text text-anchor="middle" x="370" y="-99.8" font-family="Times,serif" font-size="14.00">MarketsComponent</text>
</g>
<!-- MarketsComponent&#45;&gt;HomeModule -->
<g id="edge3" class="edge">
<title>MarketsComponent&#45;&gt;HomeModule</title>
<path fill="none" stroke="black" d="M370,-122.11C370,-122.11 370,-140.99 370,-140.99"/>
<polygon fill="black" stroke="black" points="366.5,-140.99 370,-150.99 373.5,-140.99 366.5,-140.99"/>
</g>
<!-- ProductsComponent -->
<g id="node4" class="node">
<title>ProductsComponent</title>
<polygon fill="#ffffb3" stroke="black" points="288.33,-122 157.67,-122 157.67,-86 288.33,-86 288.33,-122"/>
<text text-anchor="middle" x="223" y="-99.8" font-family="Times,serif" font-size="14.00">ProductsComponent</text>
</g>
<!-- ProductsComponent&#45;&gt;HomeModule -->
<g id="edge4" class="edge">
<title>ProductsComponent&#45;&gt;HomeModule</title>
<path fill="none" stroke="black" d="M223,-122.02C223,-139.37 223,-163 223,-163 223,-163 313.08,-163 313.08,-163"/>
<polygon fill="black" stroke="black" points="313.08,-166.5 323.08,-163 313.08,-159.5 313.08,-166.5"/>
</g>
<!-- ShopsComponent -->
<g id="node5" class="node">
<title>ShopsComponent</title>
<polygon fill="#ffffb3" stroke="black" points="139.56,-122 24.44,-122 24.44,-86 139.56,-86 139.56,-122"/>
<text text-anchor="middle" x="82" y="-99.8" font-family="Times,serif" font-size="14.00">ShopsComponent</text>
</g>
<!-- ShopsComponent&#45;&gt;HomeModule -->
<g id="edge5" class="edge">
<title>ShopsComponent&#45;&gt;HomeModule</title>
<path fill="none" stroke="black" d="M82,-122.28C82,-143.32 82,-175 82,-175 82,-175 313.09,-175 313.09,-175"/>
<polygon fill="black" stroke="black" points="313.09,-178.5 323.09,-175 313.09,-171.5 313.09,-178.5"/>
</g>
</g>
</svg>
