<?xml version="1.0" encoding="UTF-8" standalone="no"?>
<!DOCTYPE svg PUBLIC "-//W3C//DTD SVG 1.1//EN"
 "http://www.w3.org/Graphics/SVG/1.1/DTD/svg11.dtd">
<!-- Generated by graphviz version 2.47.0 (20210316.0004)
 -->
<!-- Title: dependencies Pages: 1 -->
<svg width="1386pt" height="284pt"
 viewBox="0.00 0.00 1386.00 284.00" xmlns="http://www.w3.org/2000/svg" xmlns:xlink="http://www.w3.org/1999/xlink">
<g id="graph0" class="graph" transform="scale(1 1) rotate(0) translate(4 280)">
<title>dependencies</title>
<polygon fill="white" stroke="transparent" points="-4,4 -4,-280 1382,-280 1382,4 -4,4"/>
<text text-anchor="start" x="668.01" y="-42.4" font-family="sans-serif" font-weight="bold" font-size="14.00">Legend</text>
<polygon fill="#ffffb3" stroke="transparent" points="455,-10 455,-30 475,-30 475,-10 455,-10"/>
<text text-anchor="start" x="478.63" y="-15.4" font-family="sans-serif" font-size="14.00"> &#160;Declarations</text>
<polygon fill="#8dd3c7" stroke="transparent" points="568,-10 568,-30 588,-30 588,-10 568,-10"/>
<text text-anchor="start" x="591.73" y="-15.4" font-family="sans-serif" font-size="14.00"> &#160;Module</text>
<polygon fill="#80b1d3" stroke="transparent" points="654,-10 654,-30 674,-30 674,-10 654,-10"/>
<text text-anchor="start" x="677.78" y="-15.4" font-family="sans-serif" font-size="14.00"> &#160;Bootstrap</text>
<polygon fill="#fdb462" stroke="transparent" points="751,-10 751,-30 771,-30 771,-10 751,-10"/>
<text text-anchor="start" x="774.67" y="-15.4" font-family="sans-serif" font-size="14.00"> &#160;Providers</text>
<polygon fill="#fb8072" stroke="transparent" points="847,-10 847,-30 867,-30 867,-10 847,-10"/>
<text text-anchor="start" x="870.73" y="-15.4" font-family="sans-serif" font-size="14.00"> &#160;Exports</text>
<g id="clust1" class="cluster">
<title>cluster_AppModule</title>
<polygon fill="none" stroke="black" stroke-dasharray="1,5" points="8,-70 8,-268 1370,-268 1370,-70 8,-70"/>
</g>
<g id="clust9" class="cluster">
<title>cluster_AppModule_imports</title>
<polygon fill="none" stroke="black" points="879,-78 879,-130 1362,-130 1362,-78 879,-78"/>
</g>
<g id="clust11" class="cluster">
<title>cluster_AppModule_bootstrap</title>
<polygon fill="none" stroke="black" points="684,-208 684,-260 808,-260 808,-208 684,-208"/>
</g>
<g id="clust2" class="cluster">
<title>cluster_AppModule_declarations</title>
<polygon fill="none" stroke="black" points="16,-78 16,-130 871,-130 871,-78 16,-78"/>
</g>
<!-- AppComponent -->
<g id="node1" class="node">
<title>AppComponent</title>
<polygon fill="#ffffb3" stroke="black" points="862.94,-122 757.06,-122 757.06,-86 862.94,-86 862.94,-122"/>
<text text-anchor="middle" x="810" y="-99.8" font-family="Times,serif" font-size="14.00">AppComponent</text>
</g>
<!-- AppModule -->
<g id="node7" class="node">
<title>AppModule</title>
<polygon fill="#8dd3c7" stroke="black" points="787.66,-187 784.66,-191 763.66,-191 760.66,-187 704.34,-187 704.34,-151 787.66,-151 787.66,-187"/>
<text text-anchor="middle" x="746" y="-164.8" font-family="Times,serif" font-size="14.00">AppModule</text>
</g>
<!-- AppComponent&#45;&gt;AppModule -->
<g id="edge1" class="edge">
<title>AppComponent&#45;&gt;AppModule</title>
<path fill="none" stroke="black" d="M772.55,-122.11C772.55,-122.11 772.55,-140.99 772.55,-140.99"/>
<polygon fill="black" stroke="black" points="769.05,-140.99 772.55,-150.99 776.05,-140.99 769.05,-140.99"/>
</g>
<!-- HomeComponent -->
<g id="node2" class="node">
<title>HomeComponent</title>
<polygon fill="#ffffb3" stroke="black" points="739.55,-122 624.45,-122 624.45,-86 739.55,-86 739.55,-122"/>
<text text-anchor="middle" x="682" y="-99.8" font-family="Times,serif" font-size="14.00">HomeComponent</text>
</g>
<!-- HomeComponent&#45;&gt;AppModule -->
<g id="edge2" class="edge">
<title>HomeComponent&#45;&gt;AppModule</title>
<path fill="none" stroke="black" d="M721.97,-122.11C721.97,-122.11 721.97,-140.99 721.97,-140.99"/>
<polygon fill="black" stroke="black" points="718.47,-140.99 721.97,-150.99 725.47,-140.99 718.47,-140.99"/>
</g>
<!-- LoginComponent -->
<g id="node3" class="node">
<title>LoginComponent</title>
<polygon fill="#ffffb3" stroke="black" points="606.28,-122 491.72,-122 491.72,-86 606.28,-86 606.28,-122"/>
<text text-anchor="middle" x="549" y="-99.8" font-family="Times,serif" font-size="14.00">LoginComponent</text>
</g>
<!-- LoginComponent&#45;&gt;AppModule -->
<g id="edge3" class="edge">
<title>LoginComponent&#45;&gt;AppModule</title>
<path fill="none" stroke="black" d="M549,-122.01C549,-138.05 549,-159 549,-159 549,-159 694.22,-159 694.22,-159"/>
<polygon fill="black" stroke="black" points="694.22,-162.5 704.22,-159 694.22,-155.5 694.22,-162.5"/>
</g>
<!-- RegisterComponent -->
<g id="node4" class="node">
<title>RegisterComponent</title>
<polygon fill="#ffffb3" stroke="black" points="473.98,-122 346.02,-122 346.02,-86 473.98,-86 473.98,-122"/>
<text text-anchor="middle" x="410" y="-99.8" font-family="Times,serif" font-size="14.00">RegisterComponent</text>
</g>
<!-- RegisterComponent&#45;&gt;AppModule -->
<g id="edge4" class="edge">
<title>RegisterComponent&#45;&gt;AppModule</title>
<path fill="none" stroke="black" d="M410,-122.27C410,-140.56 410,-166 410,-166 410,-166 694.12,-166 694.12,-166"/>
<polygon fill="black" stroke="black" points="694.12,-169.5 704.12,-166 694.12,-162.5 694.12,-169.5"/>
</g>
<!-- ResetPasswordComponent -->
<g id="node5" class="node">
<title>ResetPasswordComponent</title>
<polygon fill="#ffffb3" stroke="black" points="328.09,-122 161.91,-122 161.91,-86 328.09,-86 328.09,-122"/>
<text text-anchor="middle" x="245" y="-99.8" font-family="Times,serif" font-size="14.00">ResetPasswordComponent</text>
</g>
<!-- ResetPasswordComponent&#45;&gt;AppModule -->
<g id="edge5" class="edge">
<title>ResetPasswordComponent&#45;&gt;AppModule</title>
<path fill="none" stroke="black" d="M245,-122.13C245,-142.57 245,-173 245,-173 245,-173 694.15,-173 694.15,-173"/>
<polygon fill="black" stroke="black" points="694.15,-176.5 704.15,-173 694.15,-169.5 694.15,-176.5"/>
</g>
<!-- SidBarComponent -->
<g id="node6" class="node">
<title>SidBarComponent</title>
<polygon fill="#ffffb3" stroke="black" points="144.22,-122 23.78,-122 23.78,-86 144.22,-86 144.22,-122"/>
<text text-anchor="middle" x="84" y="-99.8" font-family="Times,serif" font-size="14.00">SidBarComponent</text>
</g>
<!-- SidBarComponent&#45;&gt;AppModule -->
<g id="edge6" class="edge">
<title>SidBarComponent&#45;&gt;AppModule</title>
<path fill="none" stroke="black" d="M84,-122.01C84,-144.49 84,-180 84,-180 84,-180 694.34,-180 694.34,-180"/>
<polygon fill="black" stroke="black" points="694.34,-183.5 704.34,-180 694.34,-176.5 694.34,-183.5"/>
</g>
<!-- AppComponent  -->
<g id="node12" class="node">
<title>AppComponent </title>
<polygon fill="#80b1d3" stroke="black" points="800.44,-252 691.56,-252 691.56,-216 800.44,-216 800.44,-252"/>
<text text-anchor="middle" x="746" y="-229.8" font-family="Times,serif" font-size="14.00">AppComponent </text>
</g>
<!-- AppModule&#45;&gt;AppComponent  -->
<g id="edge11" class="edge">
<title>AppModule&#45;&gt;AppComponent </title>
<path fill="none" stroke="black" stroke-dasharray="1,5" d="M746,-187.11C746,-187.11 746,-205.99 746,-205.99"/>
<polygon fill="black" stroke="black" points="742.5,-205.99 746,-215.99 749.5,-205.99 742.5,-205.99"/>
</g>
<!-- AppRoutingModule -->
<g id="node8" class="node">
<title>AppRoutingModule</title>
<polygon fill="#8dd3c7" stroke="black" points="1354.27,-122 1351.27,-126 1330.27,-126 1327.27,-122 1225.73,-122 1225.73,-86 1354.27,-86 1354.27,-122"/>
<text text-anchor="middle" x="1290" y="-99.8" font-family="Times,serif" font-size="14.00">AppRoutingModule</text>
</g>
<!-- AppRoutingModule&#45;&gt;AppModule -->
<g id="edge7" class="edge">
<title>AppRoutingModule&#45;&gt;AppModule</title>
<path fill="none" stroke="black" d="M1290,-122.01C1290,-144.49 1290,-180 1290,-180 1290,-180 797.78,-180 797.78,-180"/>
<polygon fill="black" stroke="black" points="797.78,-176.5 787.78,-180 797.78,-183.5 797.78,-176.5"/>
</g>
<!-- HomeModule -->
<g id="node9" class="node">
<title>HomeModule</title>
<polygon fill="#8dd3c7" stroke="black" points="1207.76,-122 1204.76,-126 1183.76,-126 1180.76,-122 1114.24,-122 1114.24,-86 1207.76,-86 1207.76,-122"/>
<text text-anchor="middle" x="1161" y="-99.8" font-family="Times,serif" font-size="14.00">HomeModule</text>
</g>
<!-- HomeModule&#45;&gt;AppModule -->
<g id="edge8" class="edge">
<title>HomeModule&#45;&gt;AppModule</title>
<path fill="none" stroke="black" d="M1161,-122.13C1161,-142.57 1161,-173 1161,-173 1161,-173 797.69,-173 797.69,-173"/>
<polygon fill="black" stroke="black" points="797.69,-169.5 787.69,-173 797.69,-176.5 797.69,-169.5"/>
</g>
<!-- LoginModule -->
<g id="node10" class="node">
<title>LoginModule</title>
<polygon fill="#8dd3c7" stroke="black" points="1096.49,-122 1093.49,-126 1072.49,-126 1069.49,-122 1003.51,-122 1003.51,-86 1096.49,-86 1096.49,-122"/>
<text text-anchor="middle" x="1050" y="-99.8" font-family="Times,serif" font-size="14.00">LoginModule</text>
</g>
<!-- LoginModule&#45;&gt;AppModule -->
<g id="edge9" class="edge">
<title>LoginModule&#45;&gt;AppModule</title>
<path fill="none" stroke="black" d="M1050,-122.27C1050,-140.56 1050,-166 1050,-166 1050,-166 797.95,-166 797.95,-166"/>
<polygon fill="black" stroke="black" points="797.95,-162.5 787.95,-166 797.95,-169.5 797.95,-162.5"/>
</g>
<!-- SidBarModule -->
<g id="node11" class="node">
<title>SidBarModule</title>
<polygon fill="#8dd3c7" stroke="black" points="985.44,-122 982.44,-126 961.44,-126 958.44,-122 886.56,-122 886.56,-86 985.44,-86 985.44,-122"/>
<text text-anchor="middle" x="936" y="-99.8" font-family="Times,serif" font-size="14.00">SidBarModule</text>
</g>
<!-- SidBarModule&#45;&gt;AppModule -->
<g id="edge10" class="edge">
<title>SidBarModule&#45;&gt;AppModule</title>
<path fill="none" stroke="black" d="M936,-122.01C936,-138.05 936,-159 936,-159 936,-159 797.7,-159 797.7,-159"/>
<polygon fill="black" stroke="black" points="797.7,-155.5 787.7,-159 797.7,-162.5 797.7,-155.5"/>
</g>
</g>
</svg>
