<?xml version="1.0" encoding="UTF-8" standalone="no"?>
<!DOCTYPE svg PUBLIC "-//W3C//DTD SVG 1.1//EN"
 "http://www.w3.org/Graphics/SVG/1.1/DTD/svg11.dtd">
<!-- Generated by graphviz version 2.47.0 (20210316.0004)
 -->
<!-- Title: dependencies Pages: 1 -->
<svg width="1842pt" height="360pt"
 viewBox="0.00 0.00 1842.00 360.00" xmlns="http://www.w3.org/2000/svg" xmlns:xlink="http://www.w3.org/1999/xlink">
<g id="graph0" class="graph" transform="scale(1 1) rotate(0) translate(4 356)">
<title>dependencies</title>
<polygon fill="white" stroke="transparent" points="-4,4 -4,-356 1838,-356 1838,4 -4,4"/>
<text text-anchor="start" x="896.01" y="-42.4" font-family="sans-serif" font-weight="bold" font-size="14.00">Legend</text>
<polygon fill="#ffffb3" stroke="transparent" points="683,-10 683,-30 703,-30 703,-10 683,-10"/>
<text text-anchor="start" x="706.63" y="-15.4" font-family="sans-serif" font-size="14.00"> &#160;Declarations</text>
<polygon fill="#8dd3c7" stroke="transparent" points="796,-10 796,-30 816,-30 816,-10 796,-10"/>
<text text-anchor="start" x="819.73" y="-15.4" font-family="sans-serif" font-size="14.00"> &#160;Module</text>
<polygon fill="#80b1d3" stroke="transparent" points="882,-10 882,-30 902,-30 902,-10 882,-10"/>
<text text-anchor="start" x="905.78" y="-15.4" font-family="sans-serif" font-size="14.00"> &#160;Bootstrap</text>
<polygon fill="#fdb462" stroke="transparent" points="979,-10 979,-30 999,-30 999,-10 979,-10"/>
<text text-anchor="start" x="1002.67" y="-15.4" font-family="sans-serif" font-size="14.00"> &#160;Providers</text>
<polygon fill="#fb8072" stroke="transparent" points="1075,-10 1075,-30 1095,-30 1095,-10 1075,-10"/>
<text text-anchor="start" x="1098.73" y="-15.4" font-family="sans-serif" font-size="14.00"> &#160;Exports</text>
<g id="clust1" class="cluster">
<title>cluster_AppModule</title>
<polygon fill="none" stroke="black" stroke-dasharray="1,5" points="119,-146 119,-344 1826,-344 1826,-146 119,-146"/>
</g>
<g id="clust2" class="cluster">
<title>cluster_AppModule_declarations</title>
<polygon fill="none" stroke="black" points="579,-154 579,-206 1818,-206 1818,-154 579,-154"/>
</g>
<g id="clust12" class="cluster">
<title>cluster_AppModule_imports</title>
<polygon fill="none" stroke="black" points="315,-154 315,-206 571,-206 571,-154 315,-154"/>
</g>
<g id="clust14" class="cluster">
<title>cluster_AppModule_bootstrap</title>
<polygon fill="none" stroke="black" points="906,-284 906,-336 1030,-336 1030,-284 906,-284"/>
</g>
<g id="clust15" class="cluster">
<title>cluster_AppModule_providers</title>
<polygon fill="none" stroke="black" points="127,-154 127,-206 307,-206 307,-154 127,-154"/>
</g>
<g id="clust22" class="cluster">
<title>cluster_HomeModule</title>
<polygon fill="none" stroke="black" stroke-dasharray="1,5" points="8,-70 8,-138 731,-138 731,-70 8,-70"/>
</g>
<g id="clust23" class="cluster">
<title>cluster_HomeModule_declarations</title>
<polygon fill="none" stroke="black" points="16,-78 16,-130 723,-130 723,-78 16,-78"/>
</g>
<!-- AddproductComponent -->
<g id="node1" class="node">
<title>AddproductComponent</title>
<polygon fill="#ffffb3" stroke="black" points="1810.2,-198 1661.8,-198 1661.8,-162 1810.2,-162 1810.2,-198"/>
<text text-anchor="middle" x="1736" y="-175.8" font-family="Times,serif" font-size="14.00">AddproductComponent</text>
</g>
<!-- AppModule -->
<g id="node10" class="node">
<title>AppModule</title>
<polygon fill="#8dd3c7" stroke="black" points="1009.66,-263 1006.66,-267 985.66,-267 982.66,-263 926.34,-263 926.34,-227 1009.66,-227 1009.66,-263"/>
<text text-anchor="middle" x="968" y="-240.8" font-family="Times,serif" font-size="14.00">AppModule</text>
</g>
<!-- AddproductComponent&#45;&gt;AppModule -->
<g id="edge1" class="edge">
<title>AddproductComponent&#45;&gt;AppModule</title>
<path fill="none" stroke="black" d="M1736,-198.25C1736,-221.02 1736,-257 1736,-257 1736,-257 1019.84,-257 1019.84,-257"/>
<polygon fill="black" stroke="black" points="1019.84,-253.5 1009.84,-257 1019.84,-260.5 1019.84,-253.5"/>
</g>
<!-- AppComponent -->
<g id="node2" class="node">
<title>AppComponent</title>
<polygon fill="#ffffb3" stroke="black" points="1643.94,-198 1538.06,-198 1538.06,-162 1643.94,-162 1643.94,-198"/>
<text text-anchor="middle" x="1591" y="-175.8" font-family="Times,serif" font-size="14.00">AppComponent</text>
</g>
<!-- AppComponent&#45;&gt;AppModule -->
<g id="edge2" class="edge">
<title>AppComponent&#45;&gt;AppModule</title>
<path fill="none" stroke="black" d="M1591,-198.28C1591,-219.32 1591,-251 1591,-251 1591,-251 1019.84,-251 1019.84,-251"/>
<polygon fill="black" stroke="black" points="1019.84,-247.5 1009.84,-251 1019.84,-254.5 1019.84,-247.5"/>
</g>
<!-- HomeComponent -->
<g id="node3" class="node">
<title>HomeComponent</title>
<polygon fill="#ffffb3" stroke="black" points="1520.55,-198 1405.45,-198 1405.45,-162 1520.55,-162 1520.55,-198"/>
<text text-anchor="middle" x="1463" y="-175.8" font-family="Times,serif" font-size="14.00">HomeComponent</text>
</g>
<!-- HomeComponent&#45;&gt;AppModule -->
<g id="edge3" class="edge">
<title>HomeComponent&#45;&gt;AppModule</title>
<path fill="none" stroke="black" d="M1463,-198.11C1463,-217.34 1463,-245 1463,-245 1463,-245 1019.78,-245 1019.78,-245"/>
<polygon fill="black" stroke="black" points="1019.78,-241.5 1009.78,-245 1019.78,-248.5 1019.78,-241.5"/>
</g>
<!-- LoginComponent -->
<g id="node4" class="node">
<title>LoginComponent</title>
<polygon fill="#ffffb3" stroke="black" points="1387.28,-198 1272.72,-198 1272.72,-162 1387.28,-162 1387.28,-198"/>
<text text-anchor="middle" x="1330" y="-175.8" font-family="Times,serif" font-size="14.00">LoginComponent</text>
</g>
<!-- LoginComponent&#45;&gt;AppModule -->
<g id="edge4" class="edge">
<title>LoginComponent&#45;&gt;AppModule</title>
<path fill="none" stroke="black" d="M1330,-198.02C1330,-215.37 1330,-239 1330,-239 1330,-239 1019.88,-239 1019.88,-239"/>
<polygon fill="black" stroke="black" points="1019.88,-235.5 1009.88,-239 1019.88,-242.5 1019.88,-235.5"/>
</g>
<!-- OkdialogComponent -->
<g id="node5" class="node">
<title>OkdialogComponent</title>
<polygon fill="#ffffb3" stroke="black" points="1254.94,-198 1121.06,-198 1121.06,-162 1254.94,-162 1254.94,-198"/>
<text text-anchor="middle" x="1188" y="-175.8" font-family="Times,serif" font-size="14.00">OkdialogComponent</text>
</g>
<!-- OkdialogComponent&#45;&gt;AppModule -->
<g id="edge5" class="edge">
<title>OkdialogComponent&#45;&gt;AppModule</title>
<path fill="none" stroke="black" d="M1188,-198.24C1188,-213.57 1188,-233 1188,-233 1188,-233 1019.9,-233 1019.9,-233"/>
<polygon fill="black" stroke="black" points="1019.9,-229.5 1009.9,-233 1019.9,-236.5 1019.9,-229.5"/>
</g>
<!-- RegisterComponent -->
<g id="node6" class="node">
<title>RegisterComponent</title>
<polygon fill="#ffffb3" stroke="black" points="1102.98,-198 975.02,-198 975.02,-162 1102.98,-162 1102.98,-198"/>
<text text-anchor="middle" x="1039" y="-175.8" font-family="Times,serif" font-size="14.00">RegisterComponent</text>
</g>
<!-- RegisterComponent&#45;&gt;AppModule -->
<g id="edge6" class="edge">
<title>RegisterComponent&#45;&gt;AppModule</title>
<path fill="none" stroke="black" d="M992.42,-198.11C992.42,-198.11 992.42,-216.99 992.42,-216.99"/>
<polygon fill="black" stroke="black" points="988.92,-216.99 992.42,-226.99 995.92,-216.99 988.92,-216.99"/>
</g>
<!-- SidBarComponent -->
<g id="node7" class="node">
<title>SidBarComponent</title>
<polygon fill="#ffffb3" stroke="black" points="957.22,-198 836.78,-198 836.78,-162 957.22,-162 957.22,-198"/>
<text text-anchor="middle" x="897" y="-175.8" font-family="Times,serif" font-size="14.00">SidBarComponent</text>
</g>
<!-- SidBarComponent&#45;&gt;AppModule -->
<g id="edge7" class="edge">
<title>SidBarComponent&#45;&gt;AppModule</title>
<path fill="none" stroke="black" d="M941.64,-198.11C941.64,-198.11 941.64,-216.99 941.64,-216.99"/>
<polygon fill="black" stroke="black" points="938.14,-216.99 941.64,-226.99 945.14,-216.99 938.14,-216.99"/>
</g>
<!-- UserComponent -->
<g id="node8" class="node">
<title>UserComponent</title>
<polygon fill="#ffffb3" stroke="black" points="818.76,-198 711.24,-198 711.24,-162 818.76,-162 818.76,-198"/>
<text text-anchor="middle" x="765" y="-175.8" font-family="Times,serif" font-size="14.00">UserComponent</text>
</g>
<!-- UserComponent&#45;&gt;AppModule -->
<g id="edge8" class="edge">
<title>UserComponent&#45;&gt;AppModule</title>
<path fill="none" stroke="black" d="M765,-198.24C765,-213.57 765,-233 765,-233 765,-233 915.94,-233 915.94,-233"/>
<polygon fill="black" stroke="black" points="915.94,-236.5 925.94,-233 915.94,-229.5 915.94,-236.5"/>
</g>
<!-- commentDialog -->
<g id="node9" class="node">
<title>commentDialog</title>
<polygon fill="#ffffb3" stroke="black" points="693.2,-198 586.8,-198 586.8,-162 693.2,-162 693.2,-198"/>
<text text-anchor="middle" x="640" y="-175.8" font-family="Times,serif" font-size="14.00">commentDialog</text>
</g>
<!-- commentDialog&#45;&gt;AppModule -->
<g id="edge9" class="edge">
<title>commentDialog&#45;&gt;AppModule</title>
<path fill="none" stroke="black" d="M640,-198.02C640,-215.37 640,-239 640,-239 640,-239 916.13,-239 916.13,-239"/>
<polygon fill="black" stroke="black" points="916.13,-242.5 926.13,-239 916.13,-235.5 916.13,-242.5"/>
</g>
<!-- AppComponent  -->
<g id="node13" class="node">
<title>AppComponent </title>
<polygon fill="#80b1d3" stroke="black" points="1022.44,-328 913.56,-328 913.56,-292 1022.44,-292 1022.44,-328"/>
<text text-anchor="middle" x="968" y="-305.8" font-family="Times,serif" font-size="14.00">AppComponent </text>
</g>
<!-- AppModule&#45;&gt;AppComponent  -->
<g id="edge12" class="edge">
<title>AppModule&#45;&gt;AppComponent </title>
<path fill="none" stroke="black" stroke-dasharray="1,5" d="M968,-263.11C968,-263.11 968,-281.99 968,-281.99"/>
<polygon fill="black" stroke="black" points="964.5,-281.99 968,-291.99 971.5,-281.99 964.5,-281.99"/>
</g>
<!-- AppRoutingModule -->
<g id="node11" class="node">
<title>AppRoutingModule</title>
<polygon fill="#8dd3c7" stroke="black" points="563.27,-198 560.27,-202 539.27,-202 536.27,-198 434.73,-198 434.73,-162 563.27,-162 563.27,-198"/>
<text text-anchor="middle" x="499" y="-175.8" font-family="Times,serif" font-size="14.00">AppRoutingModule</text>
</g>
<!-- AppRoutingModule&#45;&gt;AppModule -->
<g id="edge10" class="edge">
<title>AppRoutingModule&#45;&gt;AppModule</title>
<path fill="none" stroke="black" d="M499,-198.11C499,-217.34 499,-245 499,-245 499,-245 915.97,-245 915.97,-245"/>
<polygon fill="black" stroke="black" points="915.97,-248.5 925.97,-245 915.97,-241.5 915.97,-248.5"/>
</g>
<!-- HomeModule -->
<g id="node12" class="node">
<title>HomeModule</title>
<polygon fill="#8dd3c7" stroke="black" points="416.76,-198 413.76,-202 392.76,-202 389.76,-198 323.24,-198 323.24,-162 416.76,-162 416.76,-198"/>
<text text-anchor="middle" x="370" y="-175.8" font-family="Times,serif" font-size="14.00">HomeModule</text>
</g>
<!-- HomeModule&#45;&gt;AppModule -->
<g id="edge11" class="edge">
<title>HomeModule&#45;&gt;AppModule</title>
<path fill="none" stroke="black" d="M370,-198.28C370,-219.32 370,-251 370,-251 370,-251 915.95,-251 915.95,-251"/>
<polygon fill="black" stroke="black" points="915.95,-254.5 925.95,-251 915.95,-247.5 915.95,-254.5"/>
</g>
<!-- IntercepterService -->
<g id="node14" class="node">
<title>IntercepterService</title>
<ellipse fill="#fdb462" stroke="black" cx="217" cy="-180" rx="81.62" ry="18"/>
<text text-anchor="middle" x="217" y="-175.8" font-family="Times,serif" font-size="14.00">IntercepterService</text>
</g>
<!-- IntercepterService&#45;&gt;AppModule -->
<g id="edge13" class="edge">
<title>IntercepterService&#45;&gt;AppModule</title>
<path fill="none" stroke="black" d="M217,-198.25C217,-221.02 217,-257 217,-257 217,-257 916.28,-257 916.28,-257"/>
<polygon fill="black" stroke="black" points="916.28,-260.5 926.28,-257 916.28,-253.5 916.28,-260.5"/>
</g>
<!-- BasketsComponent -->
<g id="node15" class="node">
<title>BasketsComponent</title>
<polygon fill="#ffffb3" stroke="black" points="715.38,-122 590.62,-122 590.62,-86 715.38,-86 715.38,-122"/>
<text text-anchor="middle" x="653" y="-99.8" font-family="Times,serif" font-size="14.00">BasketsComponent</text>
</g>
<!-- BasketsComponent&#45;&gt;HomeModule -->
<g id="edge14" class="edge">
<title>BasketsComponent&#45;&gt;HomeModule</title>
<path fill="none" stroke="black" d="M641.83,-122.15C641.83,-135.74 641.83,-152 641.83,-152 641.83,-152 398.13,-152 398.13,-152 398.13,-152 398.13,-152.98 398.13,-152.98"/>
<polygon fill="black" stroke="black" points="394.63,-151.79 398.13,-161.79 401.63,-151.79 394.63,-151.79"/>
</g>
<!-- DetailsComponent -->
<g id="node16" class="node">
<title>DetailsComponent</title>
<polygon fill="#ffffb3" stroke="black" points="572.48,-122 451.52,-122 451.52,-86 572.48,-86 572.48,-122"/>
<text text-anchor="middle" x="512" y="-99.8" font-family="Times,serif" font-size="14.00">DetailsComponent</text>
</g>
<!-- DetailsComponent&#45;&gt;HomeModule -->
<g id="edge15" class="edge">
<title>DetailsComponent&#45;&gt;HomeModule</title>
<path fill="none" stroke="black" d="M507.45,-122.11C507.45,-131.9 507.45,-142 507.45,-142 507.45,-142 379.38,-142 379.38,-142 379.38,-142 379.38,-151.89 379.38,-151.89"/>
<polygon fill="black" stroke="black" points="375.88,-151.89 379.38,-161.89 382.88,-151.89 375.88,-151.89"/>
</g>
<!-- MarketsComponent -->
<g id="node17" class="node">
<title>MarketsComponent</title>
<polygon fill="#ffffb3" stroke="black" points="433.7,-122 306.3,-122 306.3,-86 433.7,-86 433.7,-122"/>
<text text-anchor="middle" x="370" y="-99.8" font-family="Times,serif" font-size="14.00">MarketsComponent</text>
</g>
<!-- MarketsComponent&#45;&gt;HomeModule -->
<g id="edge16" class="edge">
<title>MarketsComponent&#45;&gt;HomeModule</title>
<path fill="none" stroke="black" d="M360.62,-122.01C360.62,-122.01 360.62,-151.85 360.62,-151.85"/>
<polygon fill="black" stroke="black" points="357.12,-151.85 360.62,-161.85 364.12,-151.85 357.12,-151.85"/>
</g>
<!-- ProductsComponent -->
<g id="node18" class="node">
<title>ProductsComponent</title>
<polygon fill="#ffffb3" stroke="black" points="288.33,-122 157.67,-122 157.67,-86 288.33,-86 288.33,-122"/>
<text text-anchor="middle" x="223" y="-99.8" font-family="Times,serif" font-size="14.00">ProductsComponent</text>
</g>
<!-- ProductsComponent&#45;&gt;HomeModule -->
<g id="edge17" class="edge">
<title>ProductsComponent&#45;&gt;HomeModule</title>
<path fill="none" stroke="black" d="M288.37,-104C296.82,-104 302.6,-104 302.6,-104 302.6,-104 302.6,-180 302.6,-180 302.6,-180 313.19,-180 313.19,-180"/>
<polygon fill="black" stroke="black" points="313.19,-183.5 323.19,-180 313.19,-176.5 313.19,-183.5"/>
</g>
<!-- ShopsComponent -->
<g id="node19" class="node">
<title>ShopsComponent</title>
<polygon fill="#ffffb3" stroke="black" points="139.56,-122 24.44,-122 24.44,-86 139.56,-86 139.56,-122"/>
<text text-anchor="middle" x="82" y="-99.8" font-family="Times,serif" font-size="14.00">ShopsComponent</text>
</g>
<!-- ShopsComponent&#45;&gt;HomeModule -->
<g id="edge18" class="edge">
<title>ShopsComponent&#45;&gt;HomeModule</title>
<path fill="none" stroke="black" d="M79.71,-122.21C79.71,-127.55 79.71,-132 79.71,-132 79.71,-132 341.87,-132 341.87,-132 341.87,-132 341.87,-151.85 341.87,-151.85"/>
<polygon fill="black" stroke="black" points="338.37,-151.85 341.87,-161.85 345.37,-151.85 338.37,-151.85"/>
</g>
</g>
</svg>
